<?xml version="1.0" encoding="UTF-8"?>
<svg version="1.1" xmlns="http://www.w3.org/2000/svg" width="512" height="512">
<path d="M0 0 C0.97018066 0.31348389 0.97018066 0.31348389 1.95996094 0.63330078 C17.63257087 5.9035613 30.32608132 14.46443888 42 26 C42.71542969 26.64324219 43.43085938 27.28648437 44.16796875 27.94921875 C60.2315014 42.73023382 71.00094219 67.31610514 72.16113281 89.01342773 C72.6189849 123.57859834 65.37013528 150.25879743 40.9375 175.5 C20.28509308 196.11926183 -6.37801314 204.28370372 -35.0456543 204.31689453 C-45.1712254 204.21134518 -54.37309321 203.12982396 -64 200 C-64.97018066 199.68651611 -64.97018066 199.68651611 -65.95996094 199.36669922 C-81.63257087 194.0964387 -94.32608132 185.53556112 -106 174 C-107.07314453 173.03513672 -107.07314453 173.03513672 -108.16796875 172.05078125 C-124.2315014 157.26976618 -135.00094219 132.68389486 -136.16113281 110.98657227 C-136.6189849 76.42140166 -129.37013528 49.74120257 -104.9375 24.5 C-78.18757305 -2.20699594 -35.89667073 -11.67044228 0 0 Z " fill="#E3396B" transform="translate(272,172)"/>
<path d="M0 0 C0.97018066 0.31348389 0.97018066 0.31348389 1.95996094 0.63330078 C17.63257087 5.9035613 30.32608132 14.46443888 42 26 C42.71542969 26.64324219 43.43085938 27.28648437 44.16796875 27.94921875 C60.2315014 42.73023382 71.00094219 67.31610514 72.16113281 89.01342773 C72.6189849 123.57859834 65.37013528 150.25879743 40.9375 175.5 C20.28509308 196.11926183 -6.37801314 204.28370372 -35.0456543 204.31689453 C-45.1712254 204.21134518 -54.37309321 203.12982396 -64 200 C-64.97018066 199.68651611 -64.97018066 199.68651611 -65.95996094 199.36669922 C-81.63257087 194.0964387 -94.32608132 185.53556112 -106 174 C-107.07314453 173.03513672 -107.07314453 173.03513672 -108.16796875 172.05078125 C-124.2315014 157.26976618 -135.00094219 132.68389486 -136.16113281 110.98657227 C-136.6189849 76.42140166 -129.37013528 49.74120257 -104.9375 24.5 C-78.18757305 -2.20699594 -35.89667073 -11.67044228 0 0 Z M-100.47265625 43.80859375 C-116.01235551 63.45311923 -121.68234199 86.2141059 -120 111 C-116.89484656 134.70519576 -103.84841095 156.15213054 -85.1875 170.8125 C-72.42826813 179.89339476 -55.957049 187.61198665 -40 188 C-38.69804687 188.061875 -37.39609375 188.12375 -36.0546875 188.1875 C-11.22213445 189.03929059 11.47887157 180.29403865 29.70068359 163.34228516 C46.1611057 147.40355355 55.73957407 125.30180314 56.29248047 102.45581055 C56.50950354 77.18850209 47.57736837 55.05053879 29.90234375 36.81640625 C13.9194103 20.97306174 -8.15868324 11.61307098 -30.6875 11.5 C-58.35583103 12.06628591 -82.07521551 22.91165869 -100.47265625 43.80859375 Z " fill="#F25488" transform="translate(272,172)"/>
<path d="M0 0 C3.05503583 1.78068196 5.53139579 3.79146213 8.09765625 6.22265625 C11.56693187 4.55740395 14.70123153 2.56684108 17.90234375 0.44140625 C25.80520149 -3.94594538 35.36341271 -4.11229992 44.05078125 -2.08984375 C52.86174404 1.15345544 58.96937439 6.81147523 63.09765625 15.22265625 C66.51894035 23.73385072 66.45877147 34.3270491 63.53515625 43.03515625 C57.71672782 56.618247 47.70075863 69.13113775 36.09765625 78.22265625 C35.18113281 78.95226562 34.26460938 79.681875 33.3203125 80.43359375 C15.12018198 94.53459577 15.12018198 94.53459577 7.171875 93.79296875 C-2.74639842 91.06591052 -11.06774274 83.59826268 -18.90234375 77.22265625 C-20.10890625 76.26746094 -20.10890625 76.26746094 -21.33984375 75.29296875 C-32.15568755 66.29264159 -44.5598476 51.54688561 -46.90234375 37.22265625 C-47.6553847 26.03814637 -47.33589059 16.59567516 -40.15234375 7.41015625 C-29.86141775 -3.60841099 -13.65402137 -6.35971947 0 0 Z " fill="#FF72A0" transform="translate(78.90234375,370.77734375)"/>
<path d="M0 0 C3.05503583 1.78068196 5.53139579 3.79146213 8.09765625 6.22265625 C11.56693187 4.55740395 14.70123153 2.56684108 17.90234375 0.44140625 C25.80520149 -3.94594538 35.36341271 -4.11229992 44.05078125 -2.08984375 C52.86174404 1.15345544 58.96937439 6.81147523 63.09765625 15.22265625 C66.51894035 23.73385072 66.45877147 34.3270491 63.53515625 43.03515625 C57.71672782 56.618247 47.70075863 69.13113775 36.09765625 78.22265625 C35.18113281 78.95226562 34.26460938 79.681875 33.3203125 80.43359375 C15.12018198 94.53459577 15.12018198 94.53459577 7.171875 93.79296875 C-2.74639842 91.06591052 -11.06774274 83.59826268 -18.90234375 77.22265625 C-20.10890625 76.26746094 -20.10890625 76.26746094 -21.33984375 75.29296875 C-32.15568755 66.29264159 -44.5598476 51.54688561 -46.90234375 37.22265625 C-47.6553847 26.03814637 -47.33589059 16.59567516 -40.15234375 7.41015625 C-29.86141775 -3.60841099 -13.65402137 -6.35971947 0 0 Z " fill="#FF72A0" transform="translate(414.90234375,314.77734375)"/>
<path d="M0 0 C3.05503583 1.78068196 5.53139579 3.79146213 8.09765625 6.22265625 C11.56693187 4.55740395 14.70123153 2.56684108 17.90234375 0.44140625 C25.80520149 -3.94594538 35.36341271 -4.11229992 44.05078125 -2.08984375 C52.86174404 1.15345544 58.96937439 6.81147523 63.09765625 15.22265625 C66.51894035 23.73385072 66.45877147 34.3270491 63.53515625 43.03515625 C57.71672782 56.618247 47.70075863 69.13113775 36.09765625 78.22265625 C35.18113281 78.95226562 34.26460938 79.681875 33.3203125 80.43359375 C15.12018198 94.53459577 15.12018198 94.53459577 7.171875 93.79296875 C-2.74639842 91.06591052 -11.06774274 83.59826268 -18.90234375 77.22265625 C-20.10890625 76.26746094 -20.10890625 76.26746094 -21.33984375 75.29296875 C-32.15568755 66.29264159 -44.5598476 51.54688561 -46.90234375 37.22265625 C-47.6553847 26.03814637 -47.33589059 16.59567516 -40.15234375 7.41015625 C-29.86141775 -3.60841099 -13.65402137 -6.35971947 0 0 Z " fill="#FF72A0" transform="translate(230.90234375,34.77734375)"/>
<path d="M0 0 C1.90015351 1.41173377 3.7365743 2.85573632 5.53125 4.3984375 C8.19480864 3.14193266 10.46157783 1.76825489 12.78125 -0.0390625 C19.62034461 -4.9469478 26.14913149 -6.51736301 34.53125 -5.6015625 C44.16928919 -3.82496542 51.67808501 0.44225523 57.46875 8.3984375 C62.64441783 16.03346523 63.46273147 23.36108538 62.53125 32.3984375 C56.97813609 56.55178731 36.7768801 73.87103641 16.6953125 86.55078125 C11.06933376 89.83607501 8.05219973 90.94156301 1.53125 89.3984375 C-6.87431634 85.25251855 -14.35523118 79.44791737 -21.46875 73.3984375 C-22.20480469 72.80804688 -22.94085938 72.21765625 -23.69921875 71.609375 C-35.28734703 61.96969307 -46.81441411 47.52815205 -49.46875 32.3984375 C-50.15729991 24.14659718 -49.83005322 17.54499667 -45.46875 10.3984375 C-45.04464844 9.69976562 -44.62054688 9.00109375 -44.18359375 8.28125 C-33.86004885 -6.95963802 -15.24279469 -9.88852187 0 0 Z " fill="#FBADE0" transform="translate(233.46875,237.6015625)"/>
<path d="M0 0 C3.32635764 2.18839318 3.90585122 3.62340488 4.875 7.5 C5.00184351 11.05161835 4.84283855 12.11110751 3 15 C1.37451172 16.2734375 1.37451172 16.2734375 -0.5703125 17.375 C-1.29412109 17.79668457 -2.01792969 18.21836914 -2.76367188 18.65283203 C-3.9325293 19.31968018 -3.9325293 19.31968018 -5.125 20 C-18.11785095 27.67830529 -30.10411704 36.53376542 -41 47 C-41.48500977 47.45391113 -41.97001953 47.90782227 -42.46972656 48.37548828 C-76.09641286 79.92012399 -99.7609973 127.77969672 -102.10772705 174.12760925 C-102.16257146 176.24825454 -102.19024218 178.36696987 -102.203125 180.48828125 C-102.21344254 181.65429871 -102.21344254 181.65429871 -102.22396851 182.84387207 C-102.24101837 185.33346316 -102.24742021 187.82285366 -102.25 190.3125 C-102.25250763 191.58448746 -102.25250763 191.58448746 -102.25506592 192.88217163 C-102.2566577 206.3366874 -101.4574408 219.19960381 -98.46533203 232.34985352 C-98.28599121 233.13932373 -98.10665039 233.92879395 -97.921875 234.7421875 C-97.67195801 235.80928955 -97.67195801 235.80928955 -97.41699219 236.89794922 C-96.52028265 241.41824729 -95.95769919 245.43654879 -98.625 249.4375 C-101.5659132 251.37231132 -103.47650456 251.92809193 -107 252 C-110.68136018 250.63019156 -111.76196413 249.47913922 -113.515625 245.94921875 C-130.98420241 202.81898472 -120.17607297 145.4610282 -103 104 C-94.16815541 83.82799164 -82.41914857 65.60165427 -68 49 C-67.53239258 48.45794922 -67.06478516 47.91589844 -66.58300781 47.35742188 C-52.02931558 30.61386523 -35.27969383 16.9012702 -16.4375 5.25 C-15.60460449 4.72398193 -14.77170898 4.19796387 -13.91357422 3.65600586 C-9.12485633 0.77803574 -5.75781884 -0.80153545 0 0 Z " fill="#FF72A0" transform="translate(144,81)"/>
<path d="M0 0 C3.04595893 1.52297946 4.55308268 2.6777594 5.66015625 5.953125 C6.13977809 9.81712064 5.67570045 12.12158942 3.28125 15.234375 C-8.04004296 25.87639038 -22.32669375 33.79724551 -36 41 C-36.63534668 41.33741211 -37.27069336 41.67482422 -37.92529297 42.02246094 C-63.98922147 55.64935546 -94.49512135 63.9485938 -123.96875 64.23828125 C-124.79855881 64.2480751 -125.62836761 64.25786896 -126.48332214 64.26795959 C-155.94228461 64.54398332 -189.3519791 63.35909886 -216 49 C-218.53952383 46.29044326 -218.9690535 45.28883401 -219.375 41.5 C-218.81662592 36.28850856 -218.81662592 36.28850856 -216 34 C-209.21247333 32.4683015 -204.89098155 33.67755915 -198.5 36.125 C-150.58242413 53.12444193 -96.95638375 49.75291588 -51.05078125 28.16015625 C-39.95417969 22.82042812 -29.17428133 16.8802067 -19.26953125 9.5390625 C-18.46628418 8.94375732 -17.66303711 8.34845215 -16.83544922 7.73510742 C-15.26748638 6.55969402 -13.70993975 5.37022182 -12.16455078 4.1652832 C-8.04985342 1.05725522 -5.38193269 -0.93529905 0 0 Z " fill="#FF72A0" transform="translate(375,424)"/>
<path d="M0 0 C2.91980064 1.18435862 5.52203368 2.7667879 8.1875 4.4375 C8.9314502 4.8905249 9.67540039 5.3435498 10.44189453 5.81030273 C16.93841399 9.82738962 23.03292189 14.2280327 29 19 C29.886875 19.69480469 30.77375 20.38960937 31.6875 21.10546875 C42.18830033 29.48474111 52.53404581 38.53134697 61 49 C61.88626324 50.05116547 62.77303078 51.10190585 63.66015625 52.15234375 C94.11514594 88.69232151 113.12193221 136.23558505 113.53125 184.0234375 C112.88544581 187.64184037 111.95059588 188.85458434 109 191 C105.25609033 191.92866509 101.93552926 191.50374653 98.5625 189.6875 C96.08923598 187.01637485 95.85668667 184.30257906 95.60546875 180.81640625 C91.34053028 126.92734833 68.39111652 76.45116921 27.35302734 40.55957031 C16.78603939 31.64299175 5.12922783 23.50679087 -6.94140625 16.765625 C-10 15 -10 15 -11.5 13.1875 C-12.26669055 9.83322886 -11.83014941 7.32059766 -11 4 C-7.96021993 -0.5596701 -5.24405663 -0.50902875 0 0 Z " fill="#FF72A0" transform="translate(343,81)"/>
<path d="M0 0 C4.08998175 1.80720124 6.66247347 4.19069751 9 8 C9.62819266 13.0255413 9.03320735 15.95572354 6 20 C3.24705395 23.21177039 0.96958591 23.86947882 -3.25 24.4375 C-8.1843364 23.86182742 -10.79803186 21.71753928 -14 18 C-15.23534045 14.29397865 -15.45528745 11.90246386 -15 8 C-10.91704021 1.64314568 -7.65816344 -0.51919752 0 0 Z " fill="#FF9FCB" transform="translate(67,388)"/>
<path d="M0 0 C4.08998175 1.80720124 6.66247347 4.19069751 9 8 C9.62819266 13.0255413 9.03320735 15.95572354 6 20 C3.24705395 23.21177039 0.96958591 23.86947882 -3.25 24.4375 C-8.1843364 23.86182742 -10.79803186 21.71753928 -14 18 C-15.23534045 14.29397865 -15.45528745 11.90246386 -15 8 C-10.91704021 1.64314568 -7.65816344 -0.51919752 0 0 Z " fill="#FF9FCB" transform="translate(403,332)"/>
<path d="M0 0 C4.08998175 1.80720124 6.66247347 4.19069751 9 8 C9.62819266 13.0255413 9.03320735 15.95572354 6 20 C3.24705395 23.21177039 0.96958591 23.86947882 -3.25 24.4375 C-8.1843364 23.86182742 -10.79803186 21.71753928 -14 18 C-15.23534045 14.29397865 -15.45528745 11.90246386 -15 8 C-10.91704021 1.64314568 -7.65816344 -0.51919752 0 0 Z " fill="#FF9FCB" transform="translate(219,52)"/>
<path d="M0 0 C3.10354599 2.06903066 4.5785371 3.54595298 5.625 7.15625 C6.23078035 10.94237718 6.29559935 13.3201215 4.75 16.875 C1.27398015 21.09588125 -0.62466629 22.68024354 -6.25 23.4375 C-10.60749894 22.92912512 -12.48186665 21.88660422 -15.609375 18.9140625 C-18.07403323 15.52169583 -18.40986427 12.10623278 -18 8 C-16.5797027 4.73331621 -14.73781644 2.2815137 -12 0 C-7.79914354 -1.40028549 -4.2744815 -1.06487083 0 0 Z " fill="#FEC2F4" transform="translate(222,253)"/>
</svg>
